<?xml version="1.0" encoding="utf-8"?>
<!-- Generator: Adobe Illustrator 15.1.0, SVG Export Plug-In . SVG Version: 6.00 Build 0)  -->
<!DOCTYPE svg PUBLIC "-//W3C//DTD SVG 1.1//EN" "http://www.w3.org/Graphics/SVG/1.1/DTD/svg11.dtd">
<svg version="1.1" id="Layer_1" xmlns="http://www.w3.org/2000/svg" xmlns:xlink="http://www.w3.org/1999/xlink" x="0px" y="0px"
	 width="512px" height="512px" viewBox="0 0 512 512" enable-background="new 0 0 512 512" xml:space="preserve">
<circle fill="#4E9342" cx="256" cy="256.002" r="237.5"/>
<path fill="#99CC5D" d="M464.206,256.002c0,114.987-93.218,208.203-208.205,208.203c-114.99,0-208.207-93.216-208.207-208.203
	c0-114.99,93.217-208.207,208.207-208.207C370.988,47.795,464.206,141.012,464.206,256.002z"/>
<path fill-rule="evenodd" clip-rule="evenodd" fill="#FFFFFF" d="M288.399,345.355c0,5.388-4.191,9.873-9.225,9.873
	c-2.515,0-21.804-11.672-21.804-14.363c0-1.796,3.355-11.672,5.033-17.956C269.949,328.298,288.399,334.58,288.399,345.355z
	 M256.534,321.113c0,1.796-4.194,18.854-8.388,27.832c-2.515,5.388-5.869,4.487-7.548,4.487c-5.868,0-9.224-4.487-9.224-9.876
	c0-1.795,3.356-19.747,7.548-27.83c2.516-6.286,5.868-4.489,7.545-4.489C250.665,311.237,256.534,314.832,256.534,321.113z
	 M234.73,305.85c0,1.796-5.033,20.65-9.227,31.425c-0.837,1.795-6.708,5.387-7.547,5.387c-5.031,0-9.224-5.387-9.224-9.876
	c0-2.692,4.193-23.345,9.224-33.218c0.839-2.694,5.033-3.589,7.547-3.589C230.536,295.979,234.73,299.567,234.73,305.85z
	 M209.572,303.159c0,1.796-4.192,16.16-7.549,24.24c-0.837,2.693-5.031,2.693-6.709,2.693c-5.87,0-9.223-4.49-9.223-9.876
	c0-1.795,3.354-16.163,6.708-22.444c1.677-4.49,6.709-4.49,7.547-4.49C207.895,293.282,209.572,299.567,209.572,303.159z
	 M186.091,296.873c0,5.387-4.193,15.263-10.902,15.263c-5.87,0-9.225-6.286-9.225-10.771c0-5.386,2.517-14.365,10.902-14.365
	C181.897,286.999,186.091,290.591,186.091,296.873z M192.799,228.642c3.354,7.182,15.095,12.568,21.804,12.568
	c15.933,0,21.805-13.467,33.543-13.467c1.677,0,9.225-0.897,13.416,1.796c29.353,17.058,59.544,37.708,89.731,58.357
	c1.679,1.796,3.355,5.386,3.355,8.082c0,5.386-4.192,9.871-9.225,9.871c-8.385,0-57.864-37.705-61.217-37.705
	c-1.679,0-0.841,0.898-2.515,0.898v4.49c11.739,8.079,24.317,16.159,36.057,23.34c4.194,3.59,10.902,7.181,15.096,12.567
	c0.837,0,0.837,1.797,0.837,3.595c0,7.182-4.191,10.774-9.225,10.774c-6.708,0-44.442-27.831-48.637-30.527h-2.518
	c-0.839,0.899-1.676,0.899-1.676,2.696c0,5.386,41.093,22.443,41.093,34.114c0,5.386-4.194,10.772-9.226,10.772
	c-4.193,0-36.898-22.443-48.64-34.117c-2.516-1.793-5.87-1.793-8.388-1.793c-1.677,0-4.19,0.895-5.87,1.793
	c0.84-10.77-7.545-17.056-15.095-17.056c-4.192,0-6.708,0-10.9,5.386c-1.678-0.896-2.516-3.592-4.194-4.487
	c-3.354-2.694-7.547-3.592-10.063-3.592c-1.677,0-5.87,1.797-9.225,3.592c-1.677-6.285-10.902-10.773-14.256-10.773
	c-6.708,0-15.094,6.283-15.933,16.161c-1.677-2.696-4.193-6.286-4.193-8.082c0-2.693,13.418-44.891,22.643-66.438
	c0.838-2.693,5.87-3.591,8.386-4.49c6.709-2.691,15.935-5.386,23.481-6.283C206.216,216.071,198.669,223.254,192.799,228.642z
	 M320.266,218.766c2.518,0,12.58-1.797,14.257-1.797c2.518,0,2.518,0,2.518,0.899c6.709,21.547,12.576,43.991,18.448,65.539
	c-14.258-8.976-29.351-19.752-43.608-28.73c-20.126-11.671-43.606-34.117-64.573-34.117c-11.738,0-19.287,14.366-31.865,14.366
	c-2.517,0-9.226-2.694-14.256-5.387c17.609-16.161,24.317-31.423,38.575-31.423C288.399,198.116,285.045,218.766,320.266,218.766z
	 M416.703,187.343c10.064,29.626,25.16,89.782,25.16,91.576c0,3.591,0.839,6.284-5.03,8.978
	c-20.13,8.082-59.543,19.749-62.056,19.749c-1.678,0-6.709-1.796-7.55-4.486c-10.064-30.523-25.158-89.781-25.158-92.474
	c0-1.796,0.841-7.182,4.194-8.079c20.127-8.98,60.38-19.753,62.895-19.753C410.838,182.854,415.867,183.752,416.703,187.343z
	 M170.997,207.095c4.192,2.693,3.354,6.284,3.354,8.079c0,2.695-4.193,14.366-6.709,20.65c-3.354,9.875-7.547,20.648-10.902,31.423
	c-4.192,11.672-8.386,25.139-13.417,37.708c-0.838,2.69-5.87,4.485-7.547,4.485c-2.516,0-41.93-14.362-62.058-25.135
	c-5.031-1.796-3.353-6.284-3.353-8.079s3.353-14.367,5.871-19.755c3.354-9.875,7.547-21.545,10.901-31.422
	c4.193-12.569,9.224-25.138,13.418-37.707c0.838-4.489,6.709-4.489,8.386-4.489C110.616,182.854,150.03,196.321,170.997,207.095z"/>
</svg>
